<?xml version="1.0" standalone="no"?>
<!DOCTYPE svg PUBLIC "-//W3C//DTD SVG 20010904//EN"
 "http://www.w3.org/TR/2001/REC-SVG-20010904/DTD/svg10.dtd">
<svg version="1.0" xmlns="http://www.w3.org/2000/svg"
 width="983.000000pt" height="983.000000pt" viewBox="0 0 983.000000 983.000000"
 preserveAspectRatio="xMidYMid meet">
<metadata>
Created by potrace 1.11, written by Peter Selinger 2001-2013
</metadata>
<g transform="translate(0.000000,983.000000) scale(0.100000,-0.100000)"
fill="#000000" stroke="none">
<path d="M4611 7731 c-167 -171 -353 -362 -413 -423 -61 -62 -284 -290 -497
-506 -212 -217 -442 -451 -510 -520 -134 -138 -743 -760 -1126 -1149 -416
-424 -575 -588 -575 -593 0 -3 183 -5 407 -5 l408 0 0 -1367 c0 -751 3 -1370
7 -1374 5 -4 438 -8 963 -8 l955 -1 0 635 c1 857 3 922 32 1100 5 36 12 77 14
91 5 40 60 186 88 233 82 140 230 235 413 265 61 10 322 8 361 -3 12 -3 31 -8
43 -11 187 -41 344 -193 414 -399 17 -52 43 -166 51 -226 2 -19 7 -51 10 -70
4 -19 9 -388 11 -820 2 -432 6 -787 9 -789 3 -3 1796 -5 1840 -2 9 1 12 349
12 1344 1 738 1 1356 1 1372 l1 30 409 0 c361 0 408 1 398 14 -15 19 -63 68
-532 546 -209 213 -431 439 -494 503 -62 65 -288 295 -501 512 -213 217 -441
450 -506 516 -364 372 -810 827 -1081 1102 l-308 313 -304 -310z m938 -697
c130 -133 407 -416 616 -629 209 -213 438 -446 508 -519 71 -72 300 -306 510
-520 210 -214 422 -429 470 -478 49 -50 86 -93 83 -95 -3 -3 -108 -6 -233 -7
l-228 -1 0 -1370 0 -1370 -676 -3 -675 -2 -1 567 c0 698 -5 792 -44 996 -64
333 -217 553 -471 677 -295 145 -759 122 -1021 -49 -210 -138 -343 -391 -383
-726 -3 -27 -7 -61 -10 -75 -10 -62 -17 -385 -18 -865 l-1 -520 -707 -3 c-669
-2 -708 -1 -709 15 0 10 -1 623 -1 1363 -1 740 -3 1350 -5 1357 -3 8 -69 11
-238 10 l-234 -2 59 60 c32 33 114 117 182 186 68 70 292 299 500 510 207 211
431 440 498 509 135 138 752 767 1131 1153 134 137 294 300 354 363 l110 114
199 -203 c109 -111 305 -311 435 -443z"/>
</g>
</svg>
